<svg width="20" height="20" viewBox="0 0 20 20" fill="none" xmlns="http://www.w3.org/2000/svg">
<g id="Child_seat.Icon">
<path id="Fill" fill-rule="evenodd" clip-rule="evenodd" d="M4.54303 15.9877H13.2451C13.4137 15.9877 13.5308 15.8945 13.5529 15.7808L15.989 3.98754C15.7412 3.99317 15.5097 4.02398 15.2928 4.07856C14.7427 4.21703 14.4774 4.38064 14.0731 4.82174C14.0191 4.88057 13.8316 5.08229 13.7918 5.1258C13.5925 5.34365 13.4984 5.46784 13.3945 5.65669C13.188 6.03185 12.9669 6.63995 12.7058 7.63642C12.6376 7.89672 12.6024 8.26686 12.6069 8.71549C12.612 9.22441 12.6656 9.78566 12.7581 10.4122C12.751 10.364 12.9513 11.5628 12.9525 11.8252C12.9525 11.7971 12.9524 11.7952 12.9538 11.8136C12.9656 11.9644 12.9699 12.0471 12.9664 12.185C12.94 13.2111 12.3524 14.0329 11.3613 14.5094C11.2918 14.542 11.2918 14.542 11.2197 14.5721C10.4095 14.9005 9.70555 14.7664 9.02056 14.4044C8.85617 14.3175 8.37784 14.0216 8.29123 13.9741C7.94523 13.7843 7.6212 13.6922 7.12524 13.6922C5.8246 13.6922 5.36188 14.0431 4.89898 14.8642C4.90159 14.8596 4.82464 15.0682 4.73025 15.3689C4.70114 15.4616 4.6701 15.5629 4.63375 15.6834C4.60036 15.7957 4.57034 15.8964 4.54303 15.9877ZM10.8824 10.8637C10.8689 10.8555 10.8378 10.8365 10.7955 10.8107C10.6423 9.80426 10.4723 8.26977 10.7711 7.12947C11.4358 4.59285 11.918 4.21292 12.5988 3.47029C13.2296 2.78205 13.8246 2.38573 14.8046 2.13905C15.5948 1.94017 16.4572 1.936 17.3918 2.12653C17.9352 2.23878 18.2831 2.76781 18.1714 3.30868L15.5115 16.1854C15.3105 17.2297 14.3574 17.9877 13.2451 17.9877H2C2.03758 17.6169 2.16346 16.8516 2.42395 16.0702C2.63059 15.4503 2.93298 14.279 3.15674 13.8821C3.53718 13.2072 4.45402 11.6922 7.12524 11.6922C7.92676 11.6922 8.51233 11.8665 8.96206 12.0735C8.96325 12.0897 8.96456 12.1068 8.966 12.1253C8.96701 12.1382 8.96652 12.1286 8.96772 12.082L8.96788 12.0762C9.74406 12.4349 10.1146 12.8897 10.4946 12.707C11.0952 12.4182 10.9525 12.1205 10.9525 11.8275C10.9525 11.7274 10.878 11.3504 10.7981 10.828C10.8352 10.8414 10.8647 10.8548 10.8888 10.8675L10.8824 10.8637Z" fill="#2D3B4E" fill-opacity="0.5"/>
</g>
</svg>
