<svg width="20" height="20" viewBox="0 0 20 20" fill="none" xmlns="http://www.w3.org/2000/svg">
<g id="Icon / Small / Close-delete">
<path id="Fill" fill-rule="evenodd" clip-rule="evenodd" d="M10.0001 8.70702L13.8791 4.82803C14.2361 4.47098 14.815 4.47098 15.1721 4.82803C15.5291 5.18508 15.5291 5.76397 15.1721 6.12103L11.2931 10L15.1721 13.879C15.5291 14.236 15.5291 14.8149 15.1721 15.172C14.815 15.529 14.2361 15.529 13.8791 15.172L10.0001 11.293L6.12109 15.172C5.76404 15.529 5.18514 15.529 4.82809 15.172C4.47104 14.8149 4.47104 14.236 4.82809 13.879L8.70708 10L4.82809 6.12103C4.47104 5.76397 4.47104 5.18508 4.82809 4.82803C5.18514 4.47098 5.76404 4.47098 6.12109 4.82803L10.0001 8.70702Z" fill="#2D3B4E" fill-opacity="0.5"/>
</g>
</svg>
