<svg width="12" height="12" viewBox="0 0 12 12" fill="none" xmlns="http://www.w3.org/2000/svg">
<path id="Fill" fill-rule="evenodd" clip-rule="evenodd" d="M6.00007 4.70695L9.87906 0.827969C10.2361 0.470918 10.815 0.470918 11.1721 0.827969C11.5291 1.18502 11.5291 1.76391 11.1721 2.12096L7.29307 5.99995L11.1721 9.87894C11.5291 10.236 11.5291 10.8149 11.1721 11.1719C10.815 11.529 10.2361 11.529 9.87906 11.1719L6.00007 7.29294L2.12109 11.1719C1.76404 11.529 1.18514 11.529 0.828091 11.1719C0.47104 10.8149 0.47104 10.236 0.828091 9.87894L4.70708 5.99995L0.828091 2.12096C0.47104 1.76391 0.47104 1.18502 0.828091 0.827969C1.18514 0.470918 1.76404 0.470918 2.12109 0.827969L6.00007 4.70695Z" fill="#2D3B4E"/>
</svg>
