<svg xmlns="http://www.w3.org/2000/svg" width="48" height="48" viewBox="0 0 48 48" fill="none">
<path fill-rule="evenodd" clip-rule="evenodd" d="M24.0456 48C12.6054 47.9922 2.7527 39.9417 0.481347 28.746C-1.79001 17.5503 4.14815 6.30577 14.6834 1.85299C26.9061 -3.23048 40.9453 2.50265 46.0976 14.6815C51.2499 26.8603 45.5787 40.9071 33.4077 46.1128C30.4459 47.3643 27.2616 48.0062 24.0456 48ZM38.1964 21.4568C37.8159 21.4558 37.4508 21.6065 37.1822 21.8754L28.5016 30.542C27.9412 31.1015 27.9412 32.0088 28.5016 32.5683C29.062 33.1279 29.9706 33.1279 30.531 32.5683L39.2116 23.9007C39.6218 23.4909 39.7444 22.8747 39.5222 22.3395C39.2999 21.8042 38.7766 21.4554 38.1964 21.4557V21.4568ZM8.57163 22.3421C8.79303 21.8072 9.3151 21.4578 9.89478 21.4568C10.2756 21.4555 10.6411 21.6062 10.91 21.8754L19.5895 30.542C19.9645 30.9008 20.1159 31.434 19.9854 31.936C19.8549 32.438 19.4628 32.8303 18.9604 32.9617C18.4579 33.0931 17.9236 32.9431 17.5634 32.5694L8.88283 23.9018C8.47302 23.4924 8.35023 22.877 8.57163 22.3421ZM24.0456 16.9438C20.9541 16.9438 18.448 19.4462 18.448 22.533C18.448 25.6198 20.9541 28.1222 24.0456 28.1222C27.137 28.1222 29.6431 25.6198 29.6431 22.533C29.6431 21.0506 29.0534 19.629 28.0036 18.5808C26.9539 17.5327 25.5301 16.9438 24.0456 16.9438ZM21.3203 22.5301C21.3199 24.0334 22.54 25.2525 24.0456 25.2531C25.551 25.2519 26.7712 24.0339 26.773 22.5308C26.773 21.0275 25.5526 19.8087 24.047 19.8085C22.5415 19.8083 21.3207 21.0267 21.3203 22.5301Z" fill="#2D3B4E"/>
</svg>