<svg width="20" height="20" viewBox="0 0 20 20" fill="none" xmlns="http://www.w3.org/2000/svg">
<g id="Icon / Small / Search">
<path id="search.icon" fill-rule="evenodd" clip-rule="evenodd" d="M13.0697 11.7588L17.699 16.2849C18.0939 16.671 18.1011 17.3041 17.715 17.699C17.3289 18.0939 16.6958 18.1011 16.3009 17.715L11.6377 13.1559C10.6684 13.8282 9.49132 14.2222 8.22217 14.2222C4.90822 14.2222 2.22217 11.5361 2.22217 8.22217C2.22217 4.90822 4.90822 2.22217 8.22217 2.22217C11.5361 2.22217 14.2222 4.90822 14.2222 8.22217C14.2222 9.54466 13.7944 10.7671 13.0697 11.7588ZM12.2222 8.22217C12.2222 6.01279 10.4316 4.22217 8.22217 4.22217C6.01279 4.22217 4.22217 6.01279 4.22217 8.22217C4.22217 10.4316 6.01279 12.2222 8.22217 12.2222C10.4316 12.2222 12.2222 10.4316 12.2222 8.22217Z" fill="#2D3B4E" fill-opacity="0.5"/>
</g>
</svg>
